<?xml version="1.0" encoding="utf-8"?>
<!-- Generator: Adobe Illustrator 17.0.0, SVG Export Plug-In . SVG Version: 6.00 Build 0)  -->
<!DOCTYPE svg PUBLIC "-//W3C//DTD SVG 1.1//EN" "http://www.w3.org/Graphics/SVG/1.1/DTD/svg11.dtd">
<svg version="1.1" id="Layer_1" xmlns="http://www.w3.org/2000/svg" xmlns:xlink="http://www.w3.org/1999/xlink" x="0px" y="0px"
	 width="512px" height="512px" viewBox="0 0 512 512" enable-background="new 0 0 512 512" xml:space="preserve">
<radialGradient id="SVGID_1_" cx="257" cy="256" r="226.2742" gradientUnits="userSpaceOnUse">
	<stop  offset="0" style="stop-color:#FCEE21"/>
	<stop  offset="1" style="stop-color:#F7931E"/>
</radialGradient>
<path fill="url(#SVGID_1_)" d="M385,192c0,64-64,127-64,192H193c0-63-64-128-64-192c0-70.688,57.313-128,128-128
	S385,121.313,385,192z M305,448h-96c-8.844,0-16,7.156-16,16s7.156,16,16,16h2.938c6.594,18.625,24.188,32,45.063,32
	s38.469-13.375,45.063-32H305c8.844,0,16-7.156,16-16S313.844,448,305,448z M305,400h-96c-8.844,0-16,7.156-16,16s7.156,16,16,16h96
	c8.844,0,16-7.156,16-16S313.844,400,305,400z M82.719,109.875l28.719,16.563c4.438-9.813,9.844-19,16.094-27.656L98.719,82.125
	L82.719,109.875z M273,33.625V0h-32v33.625C246.344,33.063,251.5,32,257,32S267.656,33.063,273,33.625z M191.438,46.438
	l-16.563-28.719l-27.75,16l16.656,28.813C172.438,56.281,181.625,50.875,191.438,46.438z M431.281,109.875l-16-27.75l-28.813,16.656
	c6.25,8.656,11.688,17.844,16.125,27.656L431.281,109.875z M366.844,33.719l-27.688-16l-16.563,28.719
	c9.781,4.438,19,9.844,27.625,16.063L366.844,33.719z M97,192c0-5.5,1.063-10.656,1.625-16H65v32h33.688
	C98.063,202.688,97,197.438,97,192z M415.375,176c0.563,5.344,1.625,10.5,1.625,16c0,5.438-1.063,10.688-1.688,16H449v-32H415.375z
	 M389.094,286.719l26.188,15.125l16-27.719l-29.063-16.75C398.188,267.313,393.813,277.063,389.094,286.719z M82.719,274.125
	l16,27.719l25.969-14.969c-4.688-9.688-9.063-19.5-13.031-29.438L82.719,274.125z"/>
</svg>
